PathFileType	4	(X/Y/Z)	T:\Spectrum_Optical_Capture\Spectrum_Demo_10_05_01_TRUECOMBAT\07_Smooth_Trc\TC_Jump_1.trc
DataRate	CameraRate	NumFrames	NumMarkers	Units	OrigDataRate	OrigDataStartFrame	OrigNumFrames
60.0	60.0	       4	46	mm	60.0	457	       913
Frame#	Time	HeadTop			ForeHead			LFrontHead			RFrontHead			TopSpine			Sternum			Scapula			LFShoulder			LShoulder			LBicep			LOuterElbow			LHand			LWristPinky			LWristThumb			RFShoulder			RShoulder			RBicep			ROuterElbow			RHand			RWristPinky			RWristThumb			MiddleBack			LowerBack			Root			Pelvis			LBackWaist			RBackWaist			LFrontWaist			RFrontWaist			Bellymarker			LThigh			LOuterKnee			LAnkle			LHeel			LOuterMeta			LToe			RThigh			ROuterKnee			RAnkle			RHeel			ROuterMeta			RToe			Floor1			Floor2			Floor3			Floor4			
		X1	Y1	Z1	X2	Y2	Z2	X3	Y3	Z3	X4	Y4	Z4	X5	Y5	Z5	X6	Y6	Z6	X7	Y7	Z7	X8	Y8	Z8	X9	Y9	Z9	X10	Y10	Z10	X11	Y11	Z11	X12	Y12	Z12	X13	Y13	Z13	X14	Y14	Z14	X15	Y15	Z15	X16	Y16	Z16	X17	Y17	Z17	X18	Y18	Z18	X19	Y19	Z19	X20	Y20	Z20	X21	Y21	Z21	X22	Y22	Z22	X23	Y23	Z23	X24	Y24	Z24	X25	Y25	Z25	X26	Y26	Z26	X27	Y27	Z27	X28	Y28	Z28	X29	Y29	Z29	X30	Y30	Z30	X31	Y31	Z31	X32	Y32	Z32	X33	Y33	Z33	X34	Y34	Z34	X35	Y35	Z35	X36	Y36	Z36	X37	Y37	Z37	X38	Y38	Z38	X39	Y39	Z39	X40	Y40	Z40	X41	Y41	Z41	X42	Y42	Z42	X43	Y43	Z43	X44	Y44	Z44	X45	Y45	Z45	X46	Y46	Z46	

457	7.600	260.55505	1558.53223	317.07458	311.84363	1434.03223	418.55676	354.94458	1426.82483	304.71558	200.08350	1439.34302	408.14917	141.29504	1266.11108	221.82751	282.85657	1059.35583	414.78113	15.16443	1151.59949	283.00610	325.70081	1157.42468	323.38416	340.08557	1226.43896	156.69470	361.59119	1040.32373	56.12305	276.19006	966.04443	-11.53746	418.40076	787.21686	97.77223	409.17615	690.12109	129.15845	495.70651	731.19647	169.03835	219.90015	1185.98535	435.69617	75.70093	1289.57910	417.77649	-37.83826	1141.46057	434.11877	-66.74023	980.42267	443.20996	114.11217	882.94934	580.13696	154.82764	806.60242	594.74512	231.69681	837.14050	626.63660	112.88892	1179.32068	208.59082	94.12317	1053.72864	209.77344	87.16577	942.92188	209.07483	228.63538	957.93878	143.50684	214.29895	849.53528	141.08826	-10.17908	859.09711	319.26746	312.71069	846.60809	247.90771	58.63611	853.06110	448.48901	258.36877	862.00104	439.70691	357.75073	615.18628	252.56738	412.36646	496.08920	367.99792	434.89893	115.35240	452.52893	342.78625	51.53505	430.21704	477.87805	41.22459	509.13318	488.24280	53.79979	636.68091	-6.28918	579.60968	437.22998	-50.84473	434.74289	367.18408	-213.21985	280.72314	101.98108	-188.12390	309.23227	-12.94214	-289.48865	190.41473	31.77551	-243.09192	73.51775	47.89013	4200.74512	32.91655	-4240.89697	-3734.27612	-12.70504	-4192.58594	-3782.57422	-16.01583	4948.38965	4163.82617	21.15638	4907.19434	
458	7.617	299.12347	1560.70410	348.80292	349.59830	1435.64246	450.95743	393.75647	1428.96521	337.43469	237.84367	1441.33630	439.49561	183.92805	1264.80029	252.67148	320.13950	1059.45264	452.69757	54.45141	1152.00745	310.99576	363.33157	1155.90320	362.24588	385.01498	1215.43335	191.96761	420.28717	1013.12402	124.86228	346.64471	920.93903	65.51884	486.07687	784.81396	224.19461	481.51343	697.66150	274.94971	556.59064	756.24738	314.09485	255.06133	1185.41443	471.75113	111.13884	1288.52820	449.30389	-6.93928	1144.09973	457.79602	-40.44353	985.60272	458.84024	88.24465	838.76801	612.44672	106.00407	751.95508	621.28113	176.54567	759.50348	675.25262	154.10861	1178.60413	238.25142	130.98471	1053.41846	242.25700	117.86167	943.32159	247.07039	260.77380	954.14954	177.23209	238.38374	851.20074	175.06944	22.46028	857.60699	363.74606	342.74222	847.90472	277.75830	96.99377	854.68420	489.97754	296.03223	861.77502	472.65616	384.48126	616.39954	281.68155	441.07104	495.96155	394.05734	440.64056	113.55179	457.91507	342.43967	54.33638	431.29971	478.60208	36.51059	508.09195	491.38525	43.02719	637.62524	48.25684	585.70026	503.15155	16.34332	432.27130	454.23163	-136.68771	280.78604	197.63849	-116.52222	310.11136	79.48795	-208.25243	187.14117	128.67162	-153.75168	76.15426	148.51158	4200.84961	32.86702	-4241.05859	-3734.29102	-12.66066	-4192.62988	-3782.56689	-16.01239	4948.38232	4163.79785	21.07168	4907.22070	
459	7.633	336.44727	1564.78613	382.17160	385.94476	1438.62292	484.31802	430.96823	1432.84473	371.20703	274.29599	1444.80457	471.98291	224.95731	1267.09924	283.09723	355.69391	1061.84424	487.91605	92.03796	1155.72424	338.41534	399.63617	1157.57935	400.50555	429.62900	1212.12537	231.21730	480.46432	1002.42749	201.55415	421.80273	894.02032	153.99969	549.84210	811.89093	353.30276	548.56433	739.42969	421.95749	607.96887	814.84064	455.28122	288.44296	1187.22717	506.48480	145.63583	1290.92151	479.53635	23.09397	1151.13916	480.09830	-16.42100	996.62341	473.11038	50.87810	817.85596	636.39545	48.23005	726.37183	638.90137	101.67091	716.96716	712.32318	194.39838	1181.55603	266.80460	166.46028	1056.71350	272.70029	146.92403	946.80731	282.58719	290.50085	954.38525	209.01985	260.16849	854.49390	206.35411	53.64896	859.91785	405.43854	369.83575	850.44025	304.22266	133.79210	859.83527	528.62646	331.91248	863.76117	501.89545	406.49301	617.10950	307.08694	464.44534	493.74539	415.42166	444.14951	112.38963	460.62372	341.40677	55.64793	431.20612	477.84467	34.89799	506.25043	491.33701	39.45601	636.72882	104.40784	600.91248	567.68567	88.38513	442.32541	542.49548	-57.32867	281.52307	301.89795	-47.02234	308.96179	179.96295	-121.07480	180.56416	237.96565	-53.46172	79.89249	260.90622	4200.91162	32.82359	-4241.17578	-3734.31763	-12.62655	-4192.66162	-3782.56592	-16.01854	4948.34375	4163.76709	20.99890	4907.28516	
460	7.650	372.42117	1571.72070	417.97562	421.04102	1443.87341	519.23407	466.50180	1439.37366	406.48132	309.53177	1450.68481	506.55103	264.08005	1273.62659	313.85013	388.96173	1067.68958	521.24390	128.10350	1163.27271	365.77753	433.91684	1163.57825	438.52036	472.70172	1218.67322	274.62424	539.59998	1012.08490	282.73407	498.60870	890.82782	249.93954	606.16449	868.91833	475.70172	606.43701	815.27881	559.09448	646.82587	904.20636	580.84381	319.43423	1192.46838	540.39594	178.63405	1298.06323	508.66898	51.50930	1164.47290	499.53653	3.37423	1015.74457	484.96722	9.87630	824.96344	653.00134	-8.13308	732.90692	650.77496	23.22877	715.58105	738.35815	233.72453	1188.52356	295.42172	201.15678	1064.01184	302.05960	175.61188	954.18811	315.88159	319.73575	959.33923	240.70726	281.39780	859.78192	236.05797	84.25707	867.43268	444.40027	395.15753	854.29449	329.29565	168.78818	869.57733	564.75934	365.77319	869.07153	529.25220	423.95523	616.86621	329.65863	482.75809	489.28809	432.77673	446.20145	111.03225	461.90851	340.43494	55.83625	431.00952	476.81186	34.48517	504.56854	490.36081	39.46654	635.45734	160.68042	627.29535	628.35919	162.82733	468.17401	627.46442	23.88658	286.76511	410.81000	21.34864	307.66870	285.45993	-29.63179	176.42538	356.57733	53.15586	89.84527	382.04550	4200.93262	32.80168	-4241.23242	-3734.34131	-12.63927	-4192.64795	-3782.56519	-16.02828	4948.28760	4163.71631	20.95371	4907.33838	
